<svg width="115" height="96" viewBox="0 0 115 96" fill="none" xmlns="http://www.w3.org/2000/svg">
<path d="M106.215 20.5402C106.189 20.5223 106.158 20.5127 106.127 20.5127C106.095 20.5127 106.064 20.5223 106.038 20.5402L95.4471 28.4833L89.5307 31.7042L86.9035 34.1199C86.8855 34.1388 86.8719 34.1615 86.8636 34.1862C86.8553 34.211 86.8527 34.2373 86.8557 34.2632C86.8589 34.2895 86.8688 34.3146 86.8843 34.336C86.8998 34.3575 86.9205 34.3747 86.9444 34.386L97.0371 39.6405C97.0575 39.6434 97.0782 39.6434 97.0985 39.6405L105.178 40.2615C105.216 40.2613 105.253 40.2467 105.281 40.2206C105.314 40.1904 105.336 40.1493 105.342 40.1046L106.318 20.7039C106.323 20.669 106.315 20.6334 106.296 20.6034C106.278 20.5735 106.249 20.5511 106.215 20.5402Z" fill="#F18605"/>
<path fill-rule="evenodd" clip-rule="evenodd" d="M92.0146 10.9248L84.7539 17.9194L88.6777 27.2614L94.6009 26.2105L100.906 20.9902L92.0146 10.9248Z" fill="#C01C75"/>
<path fill-rule="evenodd" clip-rule="evenodd" d="M106.147 7.94342L99.8895 4.28576L81.4033 0.170898L92.0146 10.9255L100.906 20.9909L107.184 19.9946L109.272 21.0796L110.678 16.8829L106.147 7.94342Z" fill="#EE4263"/>
<path fill-rule="evenodd" clip-rule="evenodd" d="M81.4027 0.170898L57.6416 10.5843L65.9396 16.6577L70.4571 15.7978L76.4895 16.7327L84.7533 17.9201L92.014 10.9255L81.4027 0.170898Z" fill="#F18605"/>
<path fill-rule="evenodd" clip-rule="evenodd" d="M64.6162 0L46.4439 4.84503L36.7129 9.4717L57.6421 10.584L81.4032 0.1706L64.6162 0Z" fill="#D4F40E"/>
<path fill-rule="evenodd" clip-rule="evenodd" d="M57.6421 10.584L36.7129 9.47168L53.2065 27.1049L56.9665 23.7884L65.94 16.6573L57.6421 10.584Z" fill="#009B7C"/>
<path fill-rule="evenodd" clip-rule="evenodd" d="M36.7135 9.47168L10.2637 26.4975L20.3427 36.986L53.207 27.1049L36.7135 9.47168Z" fill="#45BF55"/>
<path fill-rule="evenodd" clip-rule="evenodd" d="M10.2633 26.498L0 45.7144L9.75831 62.3649L20.3423 36.9865L10.2633 26.498Z" fill="#97ED8A"/>
<path fill-rule="evenodd" clip-rule="evenodd" d="M36.5624 44.9833L53.2061 27.1045L20.3418 36.9856L36.5624 44.9833Z" fill="#F1B605"/>
<path fill-rule="evenodd" clip-rule="evenodd" d="M64.8899 48.7092L62.3104 43.7073L57.9157 36.1326L53.2072 27.1045L36.5635 44.9833L49.7815 51.0635L70.4787 57.9489L64.8899 48.7092Z" fill="#C01C75"/>
<path fill-rule="evenodd" clip-rule="evenodd" d="M36.5624 44.984L20.3418 36.9863L9.75781 62.3647L37.3404 65.1012L36.5624 44.984Z" fill="#F57948"/>
<path fill-rule="evenodd" clip-rule="evenodd" d="M70.4787 57.949L49.7815 51.0636L36.5635 44.9834L37.3414 65.1005L48.0483 61.5248L64.6101 68.4648L70.4787 57.949Z" fill="#DF4793"/>
<path fill-rule="evenodd" clip-rule="evenodd" d="M9.7585 62.3652L2.90039 81.2882L29.0158 84.4818L37.3411 65.1017L9.7585 62.3652Z" fill="#04D8D8"/>
<path fill-rule="evenodd" clip-rule="evenodd" d="M48.0477 61.5254L37.3409 65.1012L29.0088 84.4813L57.3829 96.0002L48.0477 61.5254Z" fill="#001EB9"/>
<path fill-rule="evenodd" clip-rule="evenodd" d="M79.9292 66.8545L73.3987 61.9685L70.478 57.9492L64.6094 68.465L90.7998 83.3481L79.9292 66.8545Z" fill="#5C186A"/>
<path fill-rule="evenodd" clip-rule="evenodd" d="M90.8002 83.3485L64.6097 68.4654L48.0479 61.5254L57.3831 96.0002L73.167 89.5106L91.2232 95.8091L90.8002 83.3485Z" fill="#05147D"/>
<path fill-rule="evenodd" clip-rule="evenodd" d="M84.4949 65.8584L90.8003 83.3483L79.9297 66.8547L84.4949 65.8584Z" fill="#80196D"/>
<path fill-rule="evenodd" clip-rule="evenodd" d="M84.7541 17.9198L76.4902 16.7324L82.3725 24.4367L88.6779 27.2618L84.7541 17.9198Z" fill="#D9D9D9"/>
<path fill-rule="evenodd" clip-rule="evenodd" d="M66.9091 32.9189L57.915 36.133L62.3097 43.7077L64.8892 48.7097L70.478 57.9493L71.72 52.7153L79.5266 41.9471L66.9091 32.9189Z" fill="#9C9B9B"/>
<path fill-rule="evenodd" clip-rule="evenodd" d="M82.3723 24.4375L75.9441 30.0536L66.9092 32.9197L79.5267 41.9479L82.4884 36.8776L88.6777 27.2626L82.3723 24.4375Z" fill="#C6C6C5"/>
<path fill-rule="evenodd" clip-rule="evenodd" d="M76.5168 16.7327L70.4844 15.7979L65.9669 16.6577L56.9661 23.7887L53.2061 27.1052L57.9146 36.1675L66.9086 32.9534L75.9436 30.0259L82.3718 24.4097L76.5168 16.7327ZM73.1731 24.9898L71.5899 26.3136L69.6109 26.6343L67.4955 25.7472L65.9942 23.7L66.1102 21.2639L67.2021 19.5647L69.3038 19.203L71.1259 19.4077L72.75 20.5473L73.4324 21.5641L73.8145 23.3793L73.1731 24.9898Z" fill="#ECECEC"/>
<path fill-rule="evenodd" clip-rule="evenodd" d="M73.4196 21.5711L72.7235 20.5543L71.0994 19.4147L69.3115 19.2236L69.2774 19.2168L70.8265 20.9501L71.5566 22.2194L71.4065 23.591L69.8643 24.3621L68.9703 23.782L68.1856 22.6697L69.1341 20.9228L69.2774 19.2168L67.1756 19.5716L66.0838 21.2708L65.9678 23.707L67.4759 25.7474L69.5845 26.6345L71.5635 26.3137L73.1466 24.9967L73.8017 23.3863L73.4196 21.5711Z" fill="#D9D9D9"/>
<path fill-rule="evenodd" clip-rule="evenodd" d="M95.4945 28.5378L88.6773 27.2617L82.488 36.8767L82.4948 36.8699L82.488 36.8767L79.5264 41.9469L84.0848 39.811L86.8212 34.2563L89.4484 31.827L95.4945 28.5378Z" fill="#001EB9"/>
<path fill-rule="evenodd" clip-rule="evenodd" d="M107.184 19.9941L100.906 20.9904L94.601 26.2108L88.6777 27.2617L95.4949 28.5378L98.2518 26.5452L98.2723 26.5111L98.2518 26.5452L102.496 23.3993L106.229 20.6834L108.317 22.8875L109.273 21.0792L107.184 19.9941Z" fill="#0B42FF"/>
<path fill-rule="evenodd" clip-rule="evenodd" d="M78.0941 52.7974L79.5271 41.9473L71.7205 52.7155L70.4785 57.9495L73.3992 61.9689L79.9297 66.8548L89.0603 64.869L90.5888 55.5407L78.0941 52.7974Z" fill="#1A2040"/>
<path fill-rule="evenodd" clip-rule="evenodd" d="M98.7361 50.4843L96.9209 39.5113L86.8214 34.2568L84.085 39.8116L88.0702 45.3595L93.0244 49.993L97.1734 53.6574L100.374 60.7612L98.7361 50.4843Z" fill="#303473"/>
<path fill-rule="evenodd" clip-rule="evenodd" d="M113.394 35.1232L108.317 22.8877L106.229 20.6836L105.253 40.0842L114.547 47.7612L113.394 35.1232Z" fill="#F1B605"/>
<path fill-rule="evenodd" clip-rule="evenodd" d="M114.547 47.7609L105.253 40.084L96.9209 39.5107L98.7361 50.4837L100.374 60.7606L114.547 47.7609Z" fill="#FFDB00"/>
<path fill-rule="evenodd" clip-rule="evenodd" d="M114.547 47.7617L111.367 61.4029L105.274 71.4614L100.374 60.7614L114.547 47.7617Z" fill="#FFD00F"/>
<path fill-rule="evenodd" clip-rule="evenodd" d="M105.274 71.4608L100.375 60.7607L100.238 67.8782L97.7338 74.9273L95.1816 78.5236L101.248 75.5688L105.274 71.4608Z" fill="#FFDB00"/>
<path fill-rule="evenodd" clip-rule="evenodd" d="M99.9988 59.9286L98.7773 57.2127L97.1736 53.6574L93.0246 49.9929L88.0704 45.3594L84.0852 39.8115L79.5268 41.9474L78.0938 52.7976L90.5885 55.5408L89.0599 64.8692L99.9988 59.9286Z" fill="#252C59"/>
<path fill-rule="evenodd" clip-rule="evenodd" d="M69.6118 22.4582L68.9703 23.7821L68.1787 22.6698L69.1272 20.9229L69.6118 22.4582Z" fill="#D9D9D9"/>
<path fill-rule="evenodd" clip-rule="evenodd" d="M70.82 20.9501L69.271 19.2168L69.1277 20.9228L69.6053 22.4514L68.9707 23.782L69.8646 24.3621L71.4069 23.591L71.5502 22.2194L70.82 20.9501Z" fill="#1A2040"/>
</svg>
